<?xml version="1.0" standalone="no"?>
<!DOCTYPE svg PUBLIC "-//W3C//DTD SVG 20010904//EN"
 "http://www.w3.org/TR/2001/REC-SVG-20010904/DTD/svg10.dtd">
<svg version="1.0" xmlns="http://www.w3.org/2000/svg"
 width="640.000000pt" height="640.000000pt" viewBox="0 0 640.000000 640.000000"
 preserveAspectRatio="xMidYMid meet">
<metadata>
Created by potrace 1.14, written by Peter Selinger 2001-2017
</metadata>
<g transform="translate(0.000000,640.000000) scale(0.100000,-0.100000)"
fill="#000000" stroke="none">
<path d="M0 3200 l0 -3200 910 0 910 0 7 30 c8 44 26 50 19 6 -5 -33 -4 -36
18 -36 19 0 27 9 40 41 20 49 45 155 53 224 3 29 16 65 31 85 13 19 22 27 18
17 -11 -35 -45 -172 -61 -252 -9 -44 -18 -88 -21 -98 -5 -16 4 -17 126 -15
l131 3 33 75 c19 41 37 86 40 100 7 27 -15 -18 -56 -113 l-26 -58 -5 43 c-11
84 -7 164 14 278 17 92 22 168 26 381 l5 266 112 6 c166 10 304 8 311 -3 7
-12 8 -677 1 -724 -3 -17 -8 -82 -11 -143 l-5 -113 35 0 35 0 0 60 c0 45 4 62
15 66 8 4 15 14 14 23 0 10 -2 11 -6 4 -25 -64 -30 129 -8 362 8 88 15 163 15
167 0 4 7 14 16 23 23 22 33 82 34 193 l0 92 43 1 c23 1 62 2 86 3 l45 1 -2
-100 c-2 -55 4 -170 12 -255 16 -160 20 -347 10 -412 l-7 -38 -70 0 c-83 0
-85 9 -3 12 32 2 60 6 63 11 2 4 -23 7 -56 6 -34 -1 -64 1 -68 5 -4 3 -1 70 5
148 6 78 10 144 7 146 -2 2 -11 -2 -18 -10 -28 -27 -47 -184 -55 -450 -2 -50
-17 -65 -25 -25 -4 19 -4 18 -6 -5 l-1 -28 139 0 140 0 83 51 c203 125 272
147 473 156 271 11 475 -41 683 -173 51 -33 54 -34 163 -34 111 0 111 0 105
23 -3 12 -6 25 -6 29 0 4 -7 5 -16 1 -17 -6 -17 -4 0 92 3 17 -4 0 -16 -37
-35 -110 -51 -85 -62 91 -5 92 -42 370 -71 533 -2 15 1 33 9 41 11 11 5 19
-40 51 -54 37 -58 44 -68 122 l-6 41 53 -4 c28 -3 57 -6 64 -8 6 -2 22 -37 33
-77 21 -70 50 -124 37 -68 -3 14 -13 53 -21 88 l-14 62 73 0 74 0 10 -38 c6
-20 11 -49 11 -64 0 -25 -3 -28 -36 -28 l-37 0 7 -42 c29 -181 46 -393 46
-590 l0 -218 56 0 57 0 -6 253 c-4 205 -10 283 -31 417 -26 164 -43 260 -52
292 -4 13 2 16 33 12 21 -2 76 -6 123 -10 l86 -5 28 -127 c16 -70 30 -145 32
-167 9 -140 14 -198 20 -223 6 -26 6 -26 -10 -7 -15 19 -16 19 -6 -8 5 -16 10
-31 10 -35 0 -12 -41 55 -45 75 -2 10 -20 56 -39 102 -19 46 -37 92 -39 102
-5 19 -27 27 -27 11 0 -5 9 -51 20 -103 24 -108 40 -486 21 -474 -6 3 -11 2
-11 -4 0 -5 5 -13 10 -16 6 -3 10 -24 10 -46 l0 -40 42 3 c36 3 43 7 51 33 5
17 18 39 28 51 11 11 19 25 19 31 0 6 7 16 15 23 21 18 19 5 -8 -38 -40 -62
-58 -102 -47 -102 5 0 10 6 10 14 0 8 11 28 25 43 l26 28 -21 -35 c-25 -44
-25 -50 3 -50 15 0 29 11 41 31 10 17 20 28 22 26 7 -7 -7 -37 -17 -37 -5 0
-9 -4 -9 -10 0 -6 259 -10 720 -10 l720 0 0 3200 0 3200 -3200 0 -3200 0 0
-3200z m3159 2173 c46 -19 89 -32 96 -29 7 2 18 -1 25 -7 10 -9 11 -9 5 1 -6
11 1 13 30 9 25 -4 38 -1 42 9 3 8 12 14 20 14 8 0 11 5 7 12 -4 7 -3 8 4 4 6
-4 29 -2 51 5 22 6 48 8 58 4 10 -4 23 -9 28 -10 6 -2 32 -12 57 -24 26 -11
54 -21 62 -21 8 0 18 -4 21 -10 3 -5 15 -10 26 -10 10 0 19 -7 19 -15 0 -8 4
-15 9 -15 13 0 41 -64 41 -94 0 -14 6 -26 13 -27 8 0 8 -2 1 -5 -9 -4 -8 -13
3 -34 8 -17 18 -30 22 -30 4 0 14 -12 21 -27 8 -16 21 -36 29 -45 11 -15 12
-18 1 -18 -11 0 -12 -2 -1 -12 6 -7 16 -13 22 -13 5 0 8 -3 7 -7 -2 -4 7 -15
19 -23 12 -8 32 -30 45 -48 17 -25 18 -29 4 -17 -31 25 -316 18 -316 -7 0 -7
-6 -10 -14 -7 -8 3 -20 -4 -28 -15 -8 -12 -18 -18 -21 -14 -4 3 -7 -2 -7 -13
0 -15 -2 -16 -9 -4 -6 8 -7 19 -4 25 3 5 -2 3 -11 -6 -9 -8 -19 -35 -22 -60
-7 -62 -13 -79 -29 -79 -8 0 -18 -7 -23 -15 -4 -9 -32 -20 -63 -25 -29 -5 -64
-12 -76 -16 -15 -4 -24 0 -33 15 -6 12 -15 19 -19 16 -5 -2 -15 3 -22 13 -13
15 -12 16 4 3 18 -14 20 -9 11 27 -7 25 -24 30 -24 6 0 -14 -1 -14 -16 0 -9
10 -13 24 -9 35 8 25 -34 92 -55 89 -8 -1 -21 1 -27 5 -7 5 -13 4 -13 -1 0 -6
-28 -8 -65 -5 -41 2 -65 0 -65 -7 0 -5 -14 -10 -31 -10 -16 0 -28 -4 -25 -8 2
-4 -13 -9 -34 -9 -45 -2 -83 -19 -75 -34 4 -5 0 -9 -8 -9 -7 0 -24 -12 -38
-26 -33 -36 -72 -54 -147 -70 -35 -7 -89 -25 -119 -39 -31 -14 -57 -24 -59
-22 -5 4 -8 57 -6 88 1 14 18 42 37 62 38 39 45 60 18 50 -17 -7 -17 -5 1 21
15 23 16 30 5 37 -10 6 -11 9 -1 9 6 0 12 5 12 10 0 6 -8 10 -17 10 -15 0 -15
2 -2 13 8 6 22 21 29 31 12 16 12 18 1 11 -11 -6 -13 -2 -9 19 3 14 1 26 -3
26 -5 0 -4 9 3 20 11 17 10 22 -1 29 -9 6 -10 11 -2 15 6 4 11 12 11 18 0 6
-10 3 -21 -8 l-22 -19 17 32 c9 17 13 40 10 50 -4 13 -3 15 4 5 12 -17 22 6
22 51 0 24 3 28 10 17 8 -12 10 -11 10 6 0 28 36 52 181 123 68 34 117 61 107
61 -9 0 -56 -19 -105 -42 -48 -23 -92 -42 -98 -43 -5 0 -16 -4 -23 -9 -7 -4
-16 -6 -18 -3 -9 8 83 58 155 85 87 31 232 44 281 24 19 -8 73 -30 119 -49z
m856 -622 c16 -3 -45 -6 -136 -6 -164 0 -166 0 -224 -30 -69 -35 -92 -68 -104
-151 l-9 -59 -1 53 c-2 94 40 151 131 183 41 14 81 18 183 17 72 0 143 -3 160
-7z m-239 -46 c-5 -20 -3 -25 11 -25 10 0 25 -5 33 -10 11 -7 0 -10 -38 -10
-39 0 -52 3 -49 13 2 6 10 11 16 10 6 -2 11 5 11 15 0 18 8 32 18 32 2 0 1
-11 -2 -25z m-878 0 c-42 -7 -87 -19 -100 -25 -54 -29 -119 -75 -109 -78 6 -2
11 -11 12 -20 1 -10 4 -7 9 8 7 23 8 22 9 -10 2 -65 41 -233 64 -274 17 -32
37 -48 85 -72 123 -62 213 -49 314 44 80 74 111 143 106 232 -6 117 -63 176
-183 190 l-60 7 49 2 c76 2 122 -17 168 -68 l40 -46 -5 -95 c-2 -52 -8 -105
-12 -117 -6 -19 -4 -23 13 -23 11 0 23 -7 26 -16 3 -8 10 -13 15 -9 12 7 1
-68 -11 -76 -11 -7 1 -41 13 -33 5 3 9 0 9 -5 0 -6 -4 -11 -9 -11 -5 0 -12
-10 -14 -22 -3 -14 -5 -9 -6 15 0 20 -6 37 -11 37 -6 0 -9 -3 -8 -7 1 -5 -8
-27 -20 -50 -23 -44 -22 -47 12 -43 10 1 15 -3 12 -9 -5 -7 3 -7 24 0 16 6 30
15 30 20 0 5 7 9 15 9 21 0 19 41 -10 199 -29 158 -32 206 -9 215 9 3 38 6 65
6 42 0 49 -3 47 -17 -2 -10 -10 -25 -18 -33 -9 -8 -17 -33 -18 -55 -4 -52 51
-266 79 -311 16 -26 19 -38 11 -46 -8 -8 -8 -15 -1 -25 14 -16 6 -48 -23 -93
l-22 -35 -6 35 c-3 21 -11 35 -20 36 -8 0 -41 4 -72 8 -74 11 -67 31 8 22 31
-4 55 -2 59 4 7 11 -4 13 -80 14 -39 1 -56 -4 -75 -21 -14 -13 -31 -23 -38
-23 -10 0 -12 -8 -7 -27 4 -19 3 -25 -4 -18 -14 14 -22 65 -10 65 5 0 9 9 9
20 0 13 -5 18 -15 14 -20 -8 -19 -57 1 -99 16 -35 39 -51 49 -35 4 6 16 10 27
10 12 0 18 -3 15 -7 -4 -3 -2 -12 3 -19 8 -9 2 -18 -24 -33 -19 -12 -36 -26
-38 -32 -2 -6 -12 -12 -23 -13 -11 -2 -19 -8 -18 -14 1 -5 -6 -8 -16 -5 -11 3
-32 -5 -48 -16 -36 -27 -133 -64 -133 -51 0 18 -14 11 -55 -28 -49 -45 -95
-106 -95 -125 0 -8 7 -20 15 -27 8 -7 15 -18 15 -26 0 -20 21 -28 32 -13 7 10
8 4 4 -18 -3 -18 -1 -35 4 -38 6 -4 8 -11 5 -16 -4 -5 -1 -9 6 -9 8 0 8 -4 2
-12 -6 -7 -9 -21 -8 -31 2 -9 -5 -22 -15 -27 -10 -5 -21 -17 -24 -26 -6 -15
-4 -15 10 -3 14 11 16 11 13 1 -6 -18 -56 -48 -65 -39 -4 4 0 15 9 25 21 23
22 33 2 26 -8 -4 -13 -9 -10 -13 2 -5 -11 -13 -30 -19 -39 -11 -46 -4 -15 16
12 7 19 16 16 21 -3 4 4 7 16 7 12 -1 23 4 25 11 3 7 -3 9 -16 6 -12 -3 -21
-1 -21 6 0 6 -7 11 -15 11 -9 0 -12 -6 -8 -17 5 -17 5 -17 -12 -2 -16 16 -16
18 2 45 10 16 12 25 6 21 -18 -11 -17 13 1 27 20 16 29 86 10 86 -8 0 -14 -8
-15 -17 0 -15 -2 -15 -9 2 -11 27 -12 37 -1 31 19 -12 31 21 23 65 -7 40 -10
44 -37 44 -22 0 -31 -5 -34 -20 -3 -19 -3 -20 17 -2 20 18 21 18 32 -5 10 -21
10 -21 -3 -5 -19 23 -32 5 -17 -23 8 -15 8 -25 1 -34 -6 -7 -9 -15 -6 -18 10
-10 15 -111 5 -123 -10 -11 -8 -35 5 -68 5 -13 3 -16 -8 -12 -8 4 -21 -1 -30
-9 -9 -9 -18 -16 -21 -16 -10 0 -2 55 8 62 6 4 7 11 2 15 -5 4 -11 2 -13 -4
-3 -7 -11 -13 -19 -13 -9 0 -12 5 -9 10 3 6 1 10 -4 10 -19 0 -12 -19 11 -31
14 -8 18 -14 10 -17 -6 -2 -12 -11 -12 -20 0 -13 -2 -12 -14 3 -8 11 -12 24
-9 29 4 5 1 6 -5 2 -6 -3 -14 -2 -17 4 -5 8 -11 7 -21 -1 -13 -11 -13 -9 -2
17 7 16 15 31 18 34 11 11 8 27 -6 27 -8 0 -14 -3 -14 -7 0 -3 -7 -15 -16 -26
-14 -18 -15 -18 -4 4 8 16 8 22 0 22 -6 0 -4 7 4 16 22 21 42 59 27 50 -11 -7
-15 9 -11 54 1 14 6 27 11 28 5 2 9 8 9 13 0 6 -5 7 -11 3 -6 -3 -14 -2 -18 4
-3 6 -7 -19 -7 -56 -1 -44 -5 -67 -12 -66 -7 1 -19 2 -27 3 -9 0 -14 10 -13
26 3 29 14 33 21 8 4 -14 5 -12 6 5 0 12 -3 22 -9 22 -5 0 -10 5 -10 11 0 5 6
7 13 3 7 -5 7 -1 -2 10 -13 15 -13 19 0 28 11 7 9 9 -8 5 -18 -4 -23 -1 -23
15 0 10 4 17 9 14 5 -3 12 6 15 19 7 29 26 24 26 -7 0 -14 5 -18 15 -14 8 3
15 1 15 -4 0 -6 7 -10 15 -10 10 0 15 -10 15 -27 0 -22 2 -25 10 -13 9 13 10
13 10 0 0 -9 9 -23 21 -33 20 -17 22 -55 4 -89 -3 -7 1 -4 9 6 24 29 20 81 -8
111 -13 14 -26 43 -30 65 -7 43 -16 49 -41 24 -15 -15 -15 -14 -9 10 6 27 -11
60 -27 50 -5 -3 -9 2 -9 10 0 9 -8 24 -17 34 -10 9 -24 30 -30 45 -7 15 -17
27 -23 27 -5 0 -10 5 -10 11 0 5 4 8 9 5 13 -9 0 42 -15 54 -7 6 -11 17 -8 24
3 7 -2 52 -10 102 -8 49 -12 93 -9 98 3 4 -1 12 -8 17 -10 6 -11 9 -1 9 6 0
12 9 12 20 0 11 -5 20 -11 20 -5 0 -8 4 -5 9 3 5 6 38 7 73 l2 65 71 -5 c45
-3 83 -11 103 -24 25 -15 37 -17 52 -9 14 8 21 8 25 -2 9 -19 -5 90 -18 142
-9 40 -15 46 -39 49 -42 5 -122 -25 -191 -72 -87 -60 -85 -59 -79 -36 3 11 10
17 16 13 5 -3 7 -2 4 4 -10 16 19 96 39 108 10 5 31 18 46 28 l28 18 1 -43 c0
-24 3 -37 6 -30 2 6 11 12 19 12 9 0 14 11 14 28 0 16 7 37 15 48 13 18 14 17
15 -18 0 -20 -6 -39 -12 -41 -7 -3 -3 -6 9 -6 31 -1 53 9 53 25 0 8 8 14 19
14 10 0 24 7 31 16 25 29 101 66 153 74 88 13 127 8 45 -5z m-169 -18 c-2 -1
-13 -9 -24 -17 -19 -14 -19 -14 -6 3 7 9 18 17 24 17 6 0 8 -1 6 -3z m161 -19
c-41 -11 -63 -28 -37 -28 28 0 19 -17 -15 -29 -37 -13 -78 -48 -78 -67 0 -7
-5 -16 -11 -20 -14 -8 -2 71 15 99 15 27 84 57 126 56 l35 -1 -35 -10z m-260
-7 c0 -6 -4 -13 -10 -16 -5 -3 -10 1 -10 9 0 9 5 16 10 16 6 0 10 -4 10 -9z
m530 -16 c3 0 23 -13 46 -27 79 -51 91 -128 38 -233 -92 -178 -283 -230 -410
-111 -43 41 -75 99 -73 133 0 10 5 2 11 -17 5 -19 16 -42 24 -50 12 -12 14
-11 14 13 0 15 6 27 13 27 8 0 7 4 -3 10 -13 9 -13 10 0 11 8 1 24 0 35 -1 19
-2 19 -1 2 18 -16 18 -16 20 -2 26 9 3 21 4 26 0 5 -3 9 -1 9 5 0 5 -5 13 -10
16 -6 3 -7 18 -4 33 9 38 20 47 19 16 -1 -66 81 -51 87 15 l4 36 9 -42 10 -42
24 18 c24 18 24 20 8 45 -19 29 -30 30 -108 16 -45 -8 -60 -17 -91 -52 -20
-23 -40 -40 -43 -37 -2 3 11 24 31 47 45 53 79 62 221 58 93 -2 116 -6 133
-21 21 -19 21 -19 11 8 -6 15 -8 35 -5 44 4 11 3 14 -3 7 -5 -8 -20 -3 -45 16
-39 28 -42 48 -4 28 11 -7 23 -13 26 -13z m1037 -17 c-3 -8 -6 -5 -6 6 -1 11
2 17 5 13 3 -3 4 -12 1 -19z m-1277 -3 c0 -2 -21 -13 -47 -25 -26 -12 -59 -31
-72 -43 l-24 -22 16 24 c9 14 40 35 69 47 60 26 58 26 58 19z m720 0 c0 -2
-10 -10 -22 -16 -21 -11 -22 -11 -9 4 13 16 31 23 31 12z m530 -87 c-21 -151
-64 -214 -182 -268 -58 -27 -82 -33 -132 -32 -34 1 -74 6 -91 11 -23 7 -7 9
70 10 83 1 109 5 151 25 109 51 155 120 176 266 6 44 13 78 16 76 2 -3 -1 -42
-8 -88z m-417 65 c-24 -5 -27 -13 -17 -50 10 -35 41 -39 70 -8 13 14 24 34 25
43 0 14 2 14 6 2 3 -8 12 -23 20 -32 20 -23 11 -34 -47 -53 -50 -17 -65 -28
-32 -24 9 1 32 -2 50 -6 28 -6 30 -10 20 -23 -7 -8 -26 -21 -42 -27 l-29 -12
52 -13 c28 -7 65 -10 81 -8 17 3 30 1 30 -4 0 -4 11 2 25 14 14 12 25 28 25
35 0 8 4 12 8 9 5 -3 9 0 10 7 0 7 3 26 6 42 2 17 5 37 6 45 1 9 5 5 11 -8 5
-13 6 -29 2 -34 -3 -7 -1 -8 6 -4 19 12 12 -115 -8 -138 -15 -18 -15 -19 3
-12 16 6 17 4 6 -10 -51 -60 -223 -85 -317 -44 -57 24 -63 35 -63 118 0 29 -5
63 -11 74 -10 18 -9 20 7 15 62 -19 67 -18 27 8 -43 26 -49 42 -33 80 6 16 8
14 7 -13 0 -40 14 -56 42 -47 16 5 21 15 21 39 0 39 6 46 34 45 19 -2 19 -2
-1 -6z m33 -48 c-4 -14 -12 -25 -18 -25 -9 0 -9 3 0 12 7 7 12 23 13 38 0 14
3 19 6 12 3 -7 2 -24 -1 -37z m-1426 21 c0 -8 -4 -17 -9 -20 -4 -3 -11 -19
-14 -36 -5 -21 -11 -28 -22 -24 -15 6 -21 -14 -16 -61 1 -14 -1 -17 -10 -8
-14 14 1 72 27 102 11 12 20 26 20 31 1 6 2 15 3 20 2 16 21 12 21 -4z m573
-77 c-6 -6 -7 3 -4 23 4 28 6 29 9 9 2 -13 0 -27 -5 -32z m97 31 c6 -11 8 -20
6 -20 -3 0 -10 9 -16 20 -6 11 -8 20 -6 20 3 0 10 -9 16 -20z m-660 -24 c0
-11 -19 -15 -25 -6 -3 5 1 10 9 10 9 0 16 -2 16 -4z m-103 -58 c-3 -7 -5 -2
-5 12 0 14 2 19 5 13 2 -7 2 -19 0 -25z m85 13 c-8 -5 -11 -19 -8 -34 5 -31 1
-34 -13 -9 -7 14 -6 25 5 41 9 12 19 20 22 16 4 -3 1 -10 -6 -14z m505 3 c-3
-3 -12 -4 -19 -1 -8 3 -5 6 6 6 11 1 17 -2 13 -5z m-562 -194 c51 -28 76 -48
83 -68 24 -64 61 -190 67 -227 4 -22 20 -84 36 -139 16 -54 29 -110 29 -123 0
-39 -51 -83 -96 -83 -48 0 -101 39 -112 83 -5 18 -18 37 -32 44 -36 18 -56 59
-89 183 -16 63 -37 138 -45 165 -24 78 -21 138 10 174 34 41 61 40 149 -9z
m1431 -8 c-5 -4 -66 26 -66 33 0 3 16 -3 35 -12 19 -9 33 -18 31 -21z m19 -22
c15 -6 59 -15 98 -20 75 -11 168 -46 152 -58 -17 -12 -16 -32 4 -53 29 -31 27
-119 -3 -153 -12 -14 -31 -26 -42 -26 -26 0 -44 -37 -33 -67 10 -27 2 -29 -22
-7 -19 17 -35 21 -89 25 -24 1 -28 3 -13 6 26 5 38 35 24 62 -6 10 -30 42 -55
71 -33 38 -43 59 -42 81 1 16 -1 35 -6 42 -5 8 -8 6 -8 -8 0 -16 -2 -17 -9 -6
-5 8 -8 28 -6 45 2 17 1 26 -2 19 -9 -22 -29 -2 -31 31 -2 31 -1 33 26 30 16
-2 41 -8 57 -14z m-85 -130 c0 -5 -4 -10 -10 -10 -5 0 -10 5 -10 10 0 6 5 10
10 10 6 0 10 -4 10 -10z m-205 -179 c25 -53 15 -70 -19 -33 -9 11 -34 25 -56
32 -47 15 -53 34 -10 28 32 -5 37 1 18 20 -10 10 -10 15 2 22 20 12 35 -4 65
-69z m-875 -131 c0 -5 -5 -10 -11 -10 -5 0 -7 5 -4 10 3 6 8 10 11 10 2 0 4
-4 4 -10z m833 -19 c-6 -22 22 -40 52 -34 66 13 85 13 85 -1 0 -13 -53 -27
-116 -30 -21 -1 -30 -5 -27 -13 3 -8 -4 -13 -18 -13 -19 0 -21 2 -9 10 50 31
-54 15 -155 -25 -62 -25 -126 -27 -133 -5 -3 8 2 10 18 5 14 -4 25 -3 30 4 4
7 17 13 28 14 12 1 22 5 22 10 0 4 5 5 10 2 6 -3 14 4 19 17 8 18 10 19 10 5
1 -16 3 -16 25 -2 13 9 37 18 52 21 16 3 34 10 41 16 9 7 13 7 13 -1 0 -6 5
-11 10 -11 6 0 10 5 10 11 0 9 26 37 37 39 0 0 -1 -9 -4 -19z m-846 -33 c-3
-7 -5 -2 -5 12 0 14 2 19 5 13 2 -7 2 -19 0 -25z m1018 2 c3 -5 -1 -10 -9 -10
-9 0 -16 5 -16 10 0 6 4 10 9 10 6 0 13 -4 16 -10z m267 -99 c7 -25 5 -38 -12
-60 -11 -16 -20 -33 -20 -39 0 -5 -7 -16 -16 -23 -14 -11 -18 -10 -31 6 -14
20 -14 20 -29 1 -12 -17 -14 -18 -14 -3 0 9 5 17 10 17 6 0 9 3 8 8 -2 11 24
62 33 62 4 0 11 10 15 23 17 55 43 59 56 8z m-922 14 c0 -8 -4 -15 -10 -15 -5
0 -7 7 -4 15 4 8 8 15 10 15 2 0 4 -7 4 -15z m670 -21 c0 -13 -10 -24 -27 -31
l-28 -11 36 -1 c62 -2 53 -51 -9 -51 -11 0 -32 -6 -46 -14 -15 -7 -48 -12 -76
-11 -37 2 -50 -1 -50 -11 0 -8 -4 -14 -9 -14 -5 0 -12 -19 -15 -42 -7 -45 -6
-55 7 -50 4 1 7 -2 7 -8 0 -5 6 -7 14 -4 23 9 27 -27 8 -61 l-19 -32 22 4 c15
3 22 0 22 -11 0 -11 -4 -13 -12 -6 -13 11 -45 3 -45 -10 0 -4 -15 -17 -32 -29
-18 -11 -29 -21 -24 -21 5 0 24 10 43 21 50 31 50 18 0 -32 -51 -51 -69 -82
-61 -102 3 -8 1 -18 -5 -22 -16 -9 -14 37 4 79 15 36 15 36 -10 48 -22 10 -30
8 -55 -10 -32 -24 -55 -28 -65 -11 -4 6 -13 8 -20 5 -10 -4 -11 2 -5 25 10 33
4 36 -29 12 -14 -9 -21 -12 -18 -6 9 15 -3 44 -14 37 -5 -3 -9 2 -9 10 0 9 -5
16 -11 16 -8 0 -7 6 2 17 12 15 12 16 -3 10 -13 -5 -18 -1 -18 13 0 10 8 24
18 29 23 14 -3 14 -29 0 -20 -10 -20 -10 -4 15 10 14 13 26 7 26 -6 0 -14 -5
-17 -10 -4 -6 -11 -7 -17 -4 -6 4 -5 9 3 15 18 11 21 52 4 45 -8 -3 -11 2 -8
15 3 10 10 19 17 19 6 0 2 7 -8 15 -10 8 -23 12 -29 8 -6 -3 -8 -2 -5 3 2 5
12 25 21 45 27 58 38 63 107 50 88 -18 120 -20 120 -11 0 5 -5 10 -12 12 -36
12 240 57 334 54 41 -1 48 -4 48 -22z m-1043 -6 c-3 -8 -6 -5 -6 6 -1 11 2 17
5 13 3 -3 4 -12 1 -19z m-1 -149 c32 -157 115 -267 264 -354 9 -5 8 0 -4 13
-11 12 -16 22 -13 22 9 0 76 -38 109 -61 14 -11 30 -19 34 -19 4 0 19 -11 33
-24 40 -37 232 -156 255 -157 41 -3 61 -7 91 -19 36 -14 66 -40 60 -50 -7 -12
64 -89 108 -116 20 -14 37 -32 37 -41 0 -9 -13 -40 -30 -70 -16 -29 -30 -57
-30 -62 0 -5 14 -12 30 -16 17 -4 30 -12 30 -19 0 -7 -13 -25 -30 -39 -28 -25
-35 -43 -31 -75 1 -8 -5 -35 -15 -61 -15 -41 -20 -47 -40 -43 -17 3 -24 0 -24
-12 0 -9 -5 -16 -12 -16 -6 0 -8 -3 -5 -6 3 -4 -3 -18 -13 -32 -11 -13 -20
-30 -20 -37 0 -7 -7 -18 -15 -25 -22 -18 -99 10 -354 132 -174 82 -325 211
-420 358 -47 72 -48 84 -25 232 14 84 16 151 11 368 -3 146 -9 279 -13 295 -5
22 -4 27 5 19 6 -6 18 -44 27 -85z m1167 -54 c-2 -11 2 -36 10 -54 10 -22 12
-44 7 -62 -5 -15 -5 -31 -2 -35 4 -4 2 -4 -5 0 -7 4 -9 14 -6 23 5 11 0 10
-16 -6 -12 -12 -19 -26 -15 -32 3 -6 -26 6 -64 25 l-70 35 18 36 c10 20 36 49
57 64 21 15 47 38 58 50 l20 23 6 -24 c4 -12 5 -32 2 -43z m-949 -34 c3 -5 -1
-14 -8 -20 -12 -10 -13 -8 -9 8 6 23 9 25 17 12z m186 -60 c0 -11 -58 -61 -70
-61 -13 0 -13 43 0 56 13 13 70 16 70 5z m-150 -32 c-7 -11 -14 -18 -17 -15
-3 3 0 12 7 21 18 21 23 19 10 -6z m140 -37 c0 -4 -10 -9 -22 -9 -18 -2 -20 0
-8 7 18 12 30 13 30 2z m511 -53 c-9 -23 -10 -22 -10 11 -1 23 2 31 9 24 7 -7
7 -19 1 -35z m-171 -3 c0 -2 -7 -6 -15 -10 -8 -3 -15 -1 -15 4 0 6 7 10 15 10
8 0 15 -2 15 -4z m145 -8 c4 4 1 -3 -6 -16 -8 -12 -22 -25 -31 -28 -10 -3 -18
-10 -18 -15 0 -6 -4 -8 -9 -4 -6 3 -1 21 11 41 15 25 24 32 33 24 6 -5 15 -6
20 -2z m148 -38 c-3 -12 -8 -19 -11 -16 -5 6 5 36 12 36 2 0 2 -9 -1 -20z
m-163 -61 c0 -6 -4 -7 -10 -4 -5 3 -10 11 -10 16 0 6 5 7 10 4 6 -3 10 -11 10
-16z m-951 -158 c-18 -24 -21 -39 -17 -83 5 -50 4 -52 -8 -23 -20 46 -17 79
11 109 32 35 41 33 14 -3z m1241 -419 c0 -4 -6 -32 -14 -62 -8 -30 -17 -76
-21 -103 -4 -26 -11 -50 -16 -52 -4 -3 -6 -15 -4 -27 5 -25 -23 -140 -35 -148
-14 -9 -110 2 -110 12 0 14 81 180 97 199 7 9 20 42 28 73 19 73 42 116 60
116 8 0 15 -4 15 -8z m542 -1042 c47 -13 122 -89 144 -146 13 -34 14 -49 5
-76 -21 -64 -86 -113 -116 -88 -25 21 -18 37 14 32 23 -3 33 2 50 27 48 67 37
125 -38 194 -34 32 -51 39 -94 44 -45 4 -57 1 -86 -21 -31 -23 -70 -96 -51
-96 4 0 8 -11 8 -25 0 -14 -5 -22 -11 -18 -6 3 -7 1 -3 -6 4 -6 11 -9 15 -7 4
3 21 -8 36 -24 37 -39 10 -41 -35 -3 -50 41 -55 66 -26 129 15 32 31 54 40 54
9 0 16 4 16 9 0 11 46 29 75 30 11 1 37 -4 57 -9z m-1367 -15 c24 -12 25 -14
5 -8 -45 12 -101 2 -143 -24 -45 -27 -86 -70 -87 -90 0 -23 52 -68 93 -80 l42
-11 -37 -1 c-46 -1 -108 48 -108 84 0 29 42 80 84 102 18 9 26 18 18 21 -13 4
-77 -39 -99 -68 -7 -8 -13 -23 -13 -33 0 -10 -4 -16 -9 -13 -16 10 6 -71 27
-102 39 -53 138 -51 159 4 3 8 13 14 22 14 9 0 23 6 30 13 11 10 13 10 7 0 -5
-9 0 -13 14 -13 12 0 20 3 18 8 -25 51 -33 62 -44 58 -7 -3 -15 2 -18 10 -3 8
-12 14 -21 14 -17 0 -21 25 -5 35 6 3 10 1 10 -4 0 -6 16 -21 35 -33 19 -13
39 -35 44 -50 13 -36 27 -35 46 2 20 39 19 56 -7 93 l-21 32 36 -34 c47 -45
48 -76 4 -119 -23 -22 -38 -30 -53 -26 -13 3 -27 -1 -35 -9 -12 -13 -16 -13
-31 0 -14 13 -19 10 -42 -29 -14 -24 -26 -38 -26 -33 0 6 -19 9 -46 6 -39 -3
-50 1 -74 24 -39 37 -63 91 -55 122 16 64 112 154 149 140 7 -3 19 -1 27 4 21
13 70 10 104 -6z m528 -6 c-3 -11 -11 -18 -19 -15 -8 3 -11 0 -8 -8 3 -8 1
-17 -5 -21 -15 -9 -14 38 1 53 19 19 37 14 31 -9z m36 -30 c-6 -13 -21 -32
-32 -43 l-21 -21 16 25 c38 62 42 69 46 65 2 -2 -2 -14 -9 -26z m796 11 c23
-10 9 -13 -39 -10 -20 1 -38 -8 -62 -31 -19 -18 -34 -28 -34 -23 0 6 9 19 20
30 11 10 26 24 33 31 14 14 53 15 82 3z m-576 -44 c-2 -2 -13 8 -23 22 l-19
27 24 -22 c12 -12 21 -24 18 -27z m-178 -7 c-5 -13 -10 -19 -10 -12 -1 15 10
45 15 40 3 -2 0 -15 -5 -28z m-731 6 c-7 -8 -17 -15 -22 -15 -6 0 -5 7 2 15 7
8 17 15 22 15 6 0 5 -7 -2 -15z m1534 -1 c24 -24 19 -30 -6 -8 -13 10 -25 20
-27 21 -2 2 1 3 7 3 6 0 18 -7 26 -16z m-1379 -32 c-6 -7 -35 18 -35 31 0 5 9
2 20 -8 11 -10 18 -20 15 -23z m779 -1 c-4 -17 -9 -30 -11 -27 -3 2 -2 19 2
36 9 41 17 33 9 -9z m-920 -6 c-14 -14 -31 -22 -39 -19 -8 4 -15 1 -15 -6 0
-6 -4 -9 -10 -5 -19 12 2 37 27 30 16 -4 25 -1 29 10 4 8 12 15 20 15 8 0 4
-10 -12 -25z m1239 18 c-7 -2 -13 -14 -14 -26 0 -12 -3 -16 -6 -9 -7 18 4 42
19 41 10 0 10 -2 1 -6z m222 -3 c19 10 28 11 37 2 7 -7 10 -12 8 -13 -3 0 -14
-3 -25 -5 -11 -3 -32 -5 -46 -5 -18 0 -30 -8 -37 -25 -15 -32 -5 -54 24 -54
13 0 24 -4 24 -9 0 -14 -25 -30 -35 -23 -16 11 -35 50 -35 70 0 25 43 72 52
58 4 -7 15 -6 33 4z m105 -67 c0 -13 -4 -23 -10 -23 -5 0 -10 -5 -10 -11 0 -5
6 -7 13 -3 7 4 9 3 4 -2 -5 -5 -12 -9 -15 -9 -4 0 -13 -4 -20 -9 -22 -14 -27
4 -5 19 24 17 34 55 21 82 -8 16 -8 16 6 -1 9 -11 16 -30 16 -43z m-917 30
c-3 -7 -6 -13 -8 -13 -2 0 -5 6 -8 13 -3 8 1 14 8 14 7 0 11 -6 8 -14z m717
-32 c0 -11 -4 -9 -15 5 -8 10 -15 25 -15 33 0 11 4 9 15 -5 8 -10 15 -25 15
-33z m-1335 28 c-4 -5 1 -20 12 -32 18 -22 18 -22 -3 -4 -27 22 -32 22 -36 -5
-3 -20 -4 -21 -10 -5 -5 11 -1 24 12 37 22 22 35 27 25 9z m247 -41 c-6 -6 -7
0 -4 19 5 21 7 23 10 9 2 -10 0 -22 -6 -28z m573 32 c3 -5 -1 -10 -9 -10 -9 0
-16 5 -16 10 0 6 4 10 9 10 6 0 13 -4 16 -10z m638 -47 c3 -13 1 -23 -3 -23
-12 0 -16 9 -25 50 -6 32 -6 33 8 15 7 -11 16 -30 20 -42z m377 48 c0 -6 -4
-13 -10 -16 -5 -3 -10 1 -10 9 0 9 5 16 10 16 6 0 10 -4 10 -9z m-2218 -41
c-3 -20 0 -30 9 -30 7 0 23 -10 37 -22 23 -23 24 -23 38 -4 16 22 19 56 5 56
-5 0 -12 -10 -16 -22 -3 -13 -8 -18 -11 -12 -9 21 15 64 35 64 29 0 39 -27 32
-90 -6 -54 -6 -55 -41 -58 -32 -3 -60 -23 -60 -44 0 -4 6 -8 13 -8 17 -1 61
-39 54 -47 -4 -3 -14 0 -23 7 -13 12 -17 11 -25 -1 -5 -8 -9 -19 -9 -26 0 -6
-5 -15 -10 -18 -6 -4 -9 -3 -8 2 2 4 -9 25 -25 46 -15 20 -39 53 -54 73 -24
34 -27 36 -39 19 -8 -10 -17 -16 -20 -12 -4 4 -1 13 6 22 25 31 -14 16 -54
-20 -33 -31 -38 -41 -34 -70 4 -32 2 -35 -21 -35 -22 0 -23 2 -9 13 9 6 19 29
22 50 6 32 4 37 -13 37 -11 0 -21 -5 -23 -11 -2 -6 -28 -16 -58 -23 -41 -9
-56 -17 -58 -32 -5 -33 -55 -154 -63 -154 -5 0 3 26 18 58 29 63 41 122 25
122 -6 0 -17 3 -26 6 -14 5 -16 -3 -16 -54 0 -86 -9 -122 -31 -122 -22 0 -34
-16 -17 -24 7 -3 4 -4 -7 -3 -12 1 -19 -3 -17 -10 1 -7 -2 -13 -8 -13 -5 0
-10 -12 -10 -26 0 -14 -4 -23 -10 -19 -31 19 6 87 65 121 17 10 20 22 20 93 0
72 3 83 23 97 20 14 23 14 28 0 5 -12 21 -16 69 -16 l62 0 12 75 c14 83 23 96
39 60 16 -36 50 -33 63 5 10 28 49 44 49 20 0 -6 12 -28 26 -50 20 -29 32 -39
45 -35 11 4 21 -1 28 -12 6 -10 11 -14 11 -10 0 5 7 2 15 -6 19 -20 69 -8 73
17 3 12 0 16 -7 11 -6 -3 -9 -11 -6 -16 11 -16 -20 -10 -73 16 -48 23 -52 28
-52 59 0 19 6 36 13 39 20 7 24 0 19 -33z m1650 -44 c31 -31 43 -37 68 -34 29
4 30 3 30 -36 -1 -39 -1 -40 -16 -21 -8 11 -21 19 -29 17 -17 -3 -125 125
-124 147 0 11 5 8 17 -9 9 -14 33 -42 54 -64z m524 29 c-1 -31 2 -59 7 -62 5
-3 3 -9 -4 -14 -7 -4 -16 -4 -19 0 -3 4 -16 4 -30 0 l-25 -7 28 -1 c20 -1 27
-6 27 -20 0 -19 -1 -19 -52 0 -29 10 -54 19 -55 19 -2 0 -3 29 -3 65 0 37 4
65 10 65 6 0 10 -9 10 -19 0 -31 11 -51 27 -51 10 0 14 -7 10 -19 -4 -17 -2
-18 19 -9 23 11 24 16 18 56 -5 32 -4 43 5 38 6 -4 11 -2 11 3 0 6 4 11 9 11
5 0 8 -25 7 -55z m81 43 c8 20 23 14 23 -10 0 -27 37 -68 62 -68 15 0 17 3 8
19 -15 29 -13 71 4 71 18 0 20 -3 39 -67 l15 -52 -48 4 c-35 3 -50 0 -54 -11
-7 -17 5 -18 24 -1 12 10 12 9 1 -5 -11 -15 -8 -24 24 -65 36 -46 35 -45 -11
6 -27 30 -49 59 -49 65 0 17 -39 95 -47 96 -4 0 -19 -11 -34 -25 -31 -29 -36
-31 -28 -10 4 9 15 20 25 26 11 5 19 17 19 27 0 15 2 15 11 2 8 -11 12 -12 16
-2z m-140 -13 c9 -24 -1 -27 -15 -5 -8 13 -8 20 -2 20 6 0 13 -7 17 -15z
m-1802 -58 l30 -4 -31 -2 c-23 -1 -38 7 -60 32 l-29 32 30 -27 c17 -14 44 -28
60 -31z m285 6 c-12 -16 -25 -28 -28 -28 -12 0 -82 -75 -82 -87 0 -19 -13 0
-26 39 -13 36 -11 62 2 29 9 -23 16 -21 86 29 35 24 64 44 66 45 2 0 -6 -12
-18 -27z m420 13 c0 -3 -4 -8 -10 -11 -5 -3 -10 -1 -10 4 0 6 5 11 10 11 6 0
10 -2 10 -4z m1230 -24 c0 -5 -10 -17 -22 -28 -20 -18 -21 -18 -15 -1 4 10 7
23 7 28 0 5 7 9 15 9 8 0 15 -4 15 -8z m25 -32 c-3 -5 -10 -10 -16 -10 -5 0
-9 5 -9 10 0 6 7 10 16 10 8 0 12 -4 9 -10z m-1080 -29 c-53 -32 -70 -61 -66
-109 0 -7 11 -17 24 -22 l22 -9 -23 0 c-12 -1 -25 6 -28 14 -5 12 -10 13 -20
4 -12 -9 -13 -4 -8 32 5 42 4 45 -33 68 -21 13 -32 26 -26 28 7 3 28 -7 47
-22 l34 -26 28 24 c29 24 50 35 69 36 6 1 -3 -7 -20 -18z m1205 -1 c11 -11 20
-27 20 -35 0 -10 11 -15 38 -16 37 -1 37 -1 7 -9 -23 -5 -34 -2 -47 13 -10 10
-18 16 -18 12 0 -4 -7 -2 -15 5 -8 7 -12 16 -9 21 3 5 0 9 -5 9 -6 0 -11 5
-11 10 0 16 18 12 40 -10z m-204 -16 c-4 -9 -9 -15 -11 -12 -3 3 -3 13 1 22 4
9 9 15 11 12 3 -3 3 -13 -1 -22z m56 -16 c-7 -7 -12 -8 -12 -2 0 14 12 26 19
19 2 -3 -1 -11 -7 -17z m-2388 -12 c-6 -16 -24 -23 -24 -8 0 10 22 33 27 28 2
-2 1 -11 -3 -20z m61 -29 c7 -21 17 -32 28 -31 13 2 15 -1 7 -10 -5 -7 -7 -16
-3 -19 3 -4 1 -7 -6 -7 -7 0 -18 13 -24 30 l-11 30 -25 -23 -25 -22 17 27 c9
15 17 37 17 49 0 28 11 17 25 -24z m2623 8 c-3 -3 -9 2 -12 12 -6 14 -5 15 5
6 7 -7 10 -15 7 -18z m-2330 3 c19 -19 15 -66 -7 -78 -11 -5 -24 -10 -29 -10
-10 0 -22 79 -15 93 6 11 38 8 51 -5z m97 -20 c-4 -18 -14 -40 -22 -48 -14
-13 -15 -12 -8 15 3 16 7 34 8 39 1 4 -4 11 -10 13 -8 3 -13 -4 -13 -19 0 -12
-5 -30 -10 -38 -7 -11 -10 -4 -10 28 0 42 0 42 36 42 35 0 35 -1 29 -32z m67
-13 c2 -37 0 -45 -13 -45 -20 0 -29 20 -29 61 0 22 5 29 19 29 15 0 20 -9 23
-45z m97 32 c15 -19 26 -77 13 -77 -15 0 -33 26 -35 49 -1 12 -5 21 -10 21 -5
0 -7 -16 -4 -36 5 -29 3 -35 -9 -30 -9 3 -18 6 -20 6 -10 0 -3 57 8 68 16 16
43 15 57 -1z m415 -19 c12 -33 2 -58 -24 -58 -15 0 -20 7 -20 29 0 62 26 79
44 29z m41 22 c5 -8 11 -8 20 0 24 20 45 0 45 -42 0 -35 -2 -39 -22 -36 -16 2
-25 12 -29 33 l-7 30 -1 -33 c-2 -49 -25 -35 -29 16 -3 40 9 55 23 32z m388 0
c12 0 17 -8 17 -31 0 -16 4 -28 9 -25 4 3 6 17 3 31 -5 30 3 33 18 5 8 -15 7
-26 -6 -45 -23 -35 -31 -31 -44 15 -12 44 -25 55 -17 15 5 -32 -26 -54 -49
-34 -32 26 -8 85 31 75 11 -3 28 -6 38 -6z m77 -11 c0 -5 -4 -9 -10 -9 -5 0
-10 7 -10 16 0 8 5 12 10 9 6 -3 10 -10 10 -16z m102 8 c20 -16 28 -69 11 -74
-9 -3 -13 6 -13 26 0 16 -5 33 -10 36 -16 10 -23 -21 -9 -47 12 -23 12 -23
-10 -4 -26 24 -29 76 -3 76 9 0 24 -6 34 -13z m52 1 c14 -43 15 -79 3 -75 -14
4 -28 87 -15 87 5 0 10 -6 12 -12z m116 -28 c0 -22 -4 -40 -10 -40 -5 0 -10
18 -10 40 0 22 5 40 10 40 6 0 10 -18 10 -40z m65 7 c19 -27 19 -47 0 -47 -8
0 -15 9 -15 20 0 11 -9 25 -20 32 -26 16 -26 28 0 21 11 -3 27 -15 35 -26z
m89 1 c9 -17 16 -38 16 -45 0 -26 -24 -7 -34 25 -5 18 -15 32 -22 32 -18 0
-17 -10 1 -34 17 -23 19 -36 5 -36 -10 0 -40 52 -40 70 0 6 4 9 9 5 5 -3 12
-1 16 5 12 19 34 10 49 -22z m756 23 c0 -6 -4 -13 -10 -16 -5 -3 -10 1 -10 9
0 9 5 16 10 16 6 0 10 -4 10 -9z m-2813 -38 c-3 -3 -15 2 -27 10 l-22 15 23 4
c22 3 38 -16 26 -29z m767 15 c3 -13 6 -32 6 -43 -1 -20 -1 -20 -15 -1 -16 22
-20 66 -6 66 5 0 11 -10 15 -22z m52 5 c7 -10 13 -29 13 -43 l-1 -25 -8 25
c-8 24 -8 24 -9 3 -1 -13 -6 -23 -12 -23 -6 0 -9 12 -8 28 2 15 0 33 -4 40
-12 19 14 14 29 -5z m53 -40 c1 -13 -3 -23 -9 -23 -13 0 -24 46 -15 67 7 17 8
16 15 -2 5 -11 9 -30 9 -42z m69 44 c6 -7 13 -24 17 -40 7 -26 5 -27 -28 -27
-28 0 -36 4 -41 24 -3 13 -8 30 -11 38 -7 17 49 22 63 5z m82 -19 c7 -18 15
-36 18 -40 2 -5 -12 -8 -31 -8 -29 0 -36 4 -41 24 -14 58 30 78 54 24z m834
16 c11 -28 6 -64 -8 -64 -18 0 -33 19 -41 53 -6 24 -4 27 18 27 14 0 28 -7 31
-16z m296 -4 c6 -9 9 -8 13 6 3 14 5 12 6 -8 0 -14 4 -33 7 -42 4 -11 0 -16
-14 -16 -13 0 -24 10 -31 30 -5 17 -15 30 -20 30 -15 0 -14 -6 5 -35 15 -23
15 -25 0 -25 -8 0 -25 18 -36 39 l-20 39 41 -3 c23 -1 45 -8 49 -15z m94 4 c3
-9 6 -27 6 -40 0 -19 -5 -24 -25 -24 -32 0 -55 41 -35 65 16 20 46 19 54 -1z
m36 -30 c0 -19 -3 -34 -7 -34 -5 0 -8 18 -8 39 -1 22 3 37 7 35 4 -3 8 -21 8
-40z m96 9 c-14 -15 -26 -24 -26 -19 0 12 42 57 48 52 2 -3 -8 -17 -22 -33z
m-2450 7 c8 0 14 -7 14 -15 0 -8 -2 -15 -4 -15 -10 0 -36 32 -35 43 0 9 2 8 6
0 2 -7 11 -13 19 -13z m136 -5 c3 -13 1 -22 -3 -19 -9 5 -13 44 -5 44 2 0 6
-11 8 -25z m1872 -28 c-9 -24 -24 -11 -24 21 0 24 2 25 15 11 9 -9 13 -23 9
-32z m409 -27 c-7 -8 -23 24 -22 45 0 15 3 13 13 -10 7 -16 11 -32 9 -35z m87
57 c0 -2 -10 -12 -21 -23 -22 -19 -22 -19 -8 4 12 19 29 30 29 19z m70 -1 c0
-2 -7 -9 -15 -16 -13 -11 -14 -10 -9 4 5 14 24 23 24 12z m287 -18 c-3 -8 -6
-5 -6 6 -1 11 2 17 5 13 3 -3 4 -12 1 -19z m-2462 -18 c-3 -5 -15 -10 -26 -10
-11 0 -17 5 -14 10 3 6 15 10 26 10 11 0 17 -4 14 -10z m2121 -18 c-17 -16
-18 -16 -5 5 7 12 15 20 18 17 3 -2 -3 -12 -13 -22z m-970 -82 c3 -25 6 -52 7
-60 2 -12 -10 -14 -60 -12 -74 5 -70 22 -46 -176 13 -112 15 -147 5 -162 -10
-16 -9 -18 3 -14 22 9 19 -4 -19 -73 -19 -35 -30 -60 -25 -57 5 3 18 22 29 42
l20 37 -6 -50 c-3 -27 -12 -62 -19 -77 -8 -16 -10 -28 -5 -28 9 0 29 54 31 84
1 16 2 17 6 4 2 -9 -1 -35 -7 -57 -11 -40 -12 -41 -54 -41 -52 0 -49 -7 -72
177 -8 70 -21 180 -29 243 -8 63 -15 123 -15 133 0 14 -9 17 -55 17 l-55 0 0
55 0 54 58 3 c31 2 112 3 179 3 l123 0 6 -45z m133 -60 c12 -52 28 -167 36
-255 13 -148 16 -161 38 -180 30 -25 42 -47 67 -127 11 -35 20 -64 20 -64 0
-1 -25 6 -55 15 -39 11 -55 21 -55 34 0 9 -4 17 -10 17 -5 0 -7 -7 -3 -16 5
-14 2 -16 -20 -10 -70 17 -74 21 -86 88 -6 35 -17 164 -26 288 -8 124 -17 244
-20 267 l-6 42 43 3 c24 2 46 1 49 -2 4 -3 16 -48 28 -100z m-710 83 c13 -26
39 -136 55 -236 7 -48 15 -89 17 -91 2 -3 5 70 6 161 2 92 4 167 5 168 2 1 27
5 56 9 l52 7 0 -78 c1 -43 5 -138 10 -211 9 -125 8 -134 -10 -152 -22 -22 -21
-20 -24 -103 l-2 -59 17 33 c16 33 15 64 -2 53 -14 -8 -11 10 6 32 11 14 14
15 9 2 -3 -9 0 -26 6 -38 7 -13 8 -26 3 -33 -5 -7 -15 -25 -22 -42 -10 -24
-10 -28 0 -17 35 33 36 -21 2 -57 l-26 -26 22 40 23 40 -26 -30 c-15 -16 -25
-38 -22 -48 2 -9 0 -14 -6 -11 -5 3 -6 19 -3 35 5 23 4 28 -8 23 -11 -4 -19
12 -33 63 l-19 68 -7 -62 c-5 -34 -12 -72 -18 -85 -8 -21 -9 -20 -11 12 -1 21
-3 27 -6 16 -4 -15 -7 -16 -14 -5 -7 11 -9 10 -9 -4 0 -10 7 -25 15 -33 8 -9
15 -25 14 -37 -1 -21 -1 -20 -8 2 -4 14 -12 26 -20 29 -10 3 -11 0 -3 -14 5
-11 6 -28 2 -39 -4 -11 -5 -26 -3 -32 3 -7 0 -13 -7 -13 -7 0 -10 8 -7 20 7
26 -7 34 -24 13 -12 -14 -12 -16 1 -8 12 6 12 5 3 -5 -24 -26 -32 0 -27 78 4
46 0 133 -10 217 -9 77 -20 213 -23 303 l-6 162 36 0 c24 0 39 -6 46 -17z
m1114 3 c16 -17 43 -151 57 -296 6 -58 20 -142 30 -187 18 -74 18 -86 5 -130
-9 -30 -13 -65 -9 -95 7 -54 -6 -78 -40 -77 -18 0 -17 2 7 11 44 16 31 23 -46
24 -87 0 -143 24 -170 71 -35 61 -58 145 -68 251 -20 203 -39 367 -45 389 -5
16 1 25 23 37 38 21 235 23 256 2z m-2218 -66 c-4 -20 -2 -37 7 -47 11 -14 11
-16 -1 -8 -27 16 -5 -79 38 -163 35 -70 41 -90 40 -139 -1 -32 -5 -71 -10 -88
-5 -20 -6 -11 -2 27 9 98 3 112 -96 234 -5 6 -11 26 -15 45 l-6 34 16 -30 c12
-25 14 -25 8 -5 -15 51 -2 170 18 170 5 0 7 -13 3 -30z m3080 20 c3 -6 -1 -7
-9 -4 -18 7 -21 14 -7 14 6 0 13 -4 16 -10z m-3049 -51 c19 -22 19 -22 -3 -10
-13 6 -23 16 -23 21 0 15 5 12 26 -11z m-110 -100 c-58 -108 -58 -107 -77 -88
-17 17 -15 20 39 76 31 32 58 58 60 57 1 0 -9 -21 -22 -45z m152 6 c-3 -3 -13
7 -23 22 l-17 28 23 -22 c12 -12 20 -25 17 -28z m32 15 c0 -5 -2 -10 -4 -10
-3 0 -8 5 -11 10 -3 6 -1 10 4 10 6 0 11 -4 11 -10z m-60 -25 c0 -8 -4 -15
-10 -15 -5 0 -7 7 -4 15 4 8 8 15 10 15 2 0 4 -7 4 -15z m15 -34 c3 -5 1 -12
-4 -15 -5 -3 -11 1 -15 9 -6 16 9 21 19 6z m55 5 c0 -2 -7 -7 -16 -10 -8 -3
-12 -2 -9 4 6 10 25 14 25 6z m-42 -39 c-1 -2 3 -11 11 -20 8 -11 9 -17 3 -17
-14 0 -34 35 -25 44 7 6 17 1 11 -7z m-248 -57 c-6 -12 -9 -24 -6 -27 3 -4 0
-13 -7 -21 -9 -12 -9 -16 1 -19 22 -8 1 -23 -24 -17 -18 5 -29 0 -44 -17 -32
-39 -34 -59 -10 -76 12 -8 19 -21 16 -29 -4 -12 -2 -12 15 -4 29 16 61 -7 96
-70 26 -47 50 -69 37 -35 -6 14 30 78 59 110 14 15 52 7 72 -15 14 -15 14 -19
1 -30 -13 -10 -17 -8 -27 14 -14 29 -39 35 -39 9 0 -10 -13 -41 -28 -69 -22
-39 -25 -53 -16 -62 6 -6 15 -8 18 -4 4 3 11 0 16 -8 15 -23 12 -36 -3 -15 -9
11 -16 14 -20 8 -4 -6 0 -16 8 -23 23 -19 20 -43 -4 -30 -26 14 -26 14 -56
-14 -21 -20 -26 -32 -23 -62 4 -47 -16 -55 -36 -15 -24 45 -20 55 31 99 l48
40 -28 26 c-15 14 -27 31 -27 38 0 8 -14 30 -31 51 -25 30 -34 35 -49 27 -27
-15 -40 -12 -40 8 0 29 -29 62 -55 62 -38 0 -38 17 0 36 39 18 60 47 51 70 -4
10 3 14 29 14 21 0 35 5 35 13 0 20 43 83 47 70 2 -7 -1 -22 -7 -33z m210 -54
c0 -2 3 -13 7 -23 6 -16 5 -16 -10 -4 -15 12 -17 11 -17 -3 0 -20 -51 -46 -96
-48 -27 -1 -41 5 -62 28 -26 27 -26 28 -1 6 14 -12 38 -22 53 -22 37 0 83 25
91 50 5 16 35 30 35 16z m3190 -48 c0 -6 -7 -5 -15 2 -8 7 -15 17 -15 22 0 6
7 5 15 -2 8 -7 15 -17 15 -22z m-3404 -9 c7 -12 -12 -29 -34 -29 -10 0 -10 4
0 20 14 23 24 25 34 9z m1501 -21 c-3 -7 -5 -2 -5 12 0 14 2 19 5 13 2 -7 2
-19 0 -25z m-1271 10 c4 -7 3 -10 -1 -5 -5 4 -18 -1 -29 -10 -21 -18 -21 -18
-2 5 22 26 23 26 32 10z m3204 2 c0 -5 19 -10 43 -11 23 0 36 -3 30 -6 -7 -2
-15 -4 -18 -3 -3 0 -13 -6 -21 -15 -20 -20 -58 -20 -51 -1 3 8 1 16 -5 18 -6
2 -8 10 -4 16 9 15 26 16 26 2z m-3480 -45 c0 -8 -4 -15 -10 -15 -5 0 -10 7
-10 15 0 8 5 15 10 15 6 0 10 -7 10 -15z m75 -5 c18 -20 17 -20 -13 -20 -34 0
-52 18 -31 31 20 12 24 11 44 -11z m83 -17 c-10 -2 -26 -2 -35 0 -10 3 -2 5
17 5 19 0 27 -2 18 -5z m-40 -33 c-14 -22 -24 -19 -15 5 4 8 11 15 17 15 6 0
6 -7 -2 -20z m3379 -16 c-3 -3 -12 -4 -19 -1 -8 3 -5 6 6 6 11 1 17 -2 13 -5z
m-337 -156 c19 -40 19 -42 2 -62 -25 -30 -56 -95 -63 -136 -6 -34 -6 -34 -8
10 -1 37 6 56 34 99 38 58 41 66 23 77 -7 4 -8 3 -4 -5 4 -6 -2 -23 -13 -37
-12 -15 -21 -32 -21 -39 0 -7 -7 -18 -15 -25 -13 -10 -15 -9 -15 9 0 11 3 21
8 21 7 0 42 89 42 106 -1 20 -30 -32 -30 -52 0 -13 -4 -26 -10 -29 -21 -13 -9
45 16 74 14 17 28 31 30 31 2 0 13 -19 24 -42z m34 -76 c-5 -4 -25 -31 -44
-59 -18 -29 -35 -51 -37 -49 -4 3 25 60 54 109 2 4 12 7 21 7 10 0 13 -3 6 -8z
m-3027 -15 c-5 -17 -37 -21 -37 -5 0 8 9 14 21 15 12 1 19 -3 16 -10z m1028 3
c-3 -5 -16 -10 -29 -10 -23 0 -46 -17 -46 -34 0 -5 8 -2 18 7 23 21 39 22 18
1 -9 -8 -25 -17 -37 -19 -46 -9 -59 -17 -59 -37 0 -19 1 -19 21 3 17 21 19 21
10 3 -5 -11 -17 -26 -25 -34 -14 -11 -16 -7 -16 29 0 37 2 41 24 41 14 0 28 5
32 11 5 8 -3 10 -25 7 -25 -4 -31 -1 -31 13 0 15 11 19 63 22 34 2 68 4 75 5
7 1 10 -2 7 -8z m2025 -90 c-12 -17 -24 -29 -27 -26 -3 3 4 18 16 35 12 16 19
37 16 48 -4 12 -2 11 6 -4 9 -18 8 -27 -11 -53z m-3086 35 c-4 -8 -8 -15 -10
-15 -2 0 -4 7 -4 15 0 8 4 15 10 15 5 0 7 -7 4 -15z m3066 -5 c-6 -11 -13 -20
-16 -20 -2 0 0 9 6 20 6 11 13 20 16 20 2 0 0 -9 -6 -20z m47 -42 c-3 -8 -6
-5 -6 6 -1 11 2 17 5 13 3 -3 4 -12 1 -19z m10 -40 c-3 -8 -6 -5 -6 6 -1 11 2
17 5 13 3 -3 4 -12 1 -19z m-84 -3 c-3 -9 -8 -14 -10 -11 -3 3 -2 9 2 15 9 16
15 13 8 -4z"/>
<path d="M2640 5280 c-14 -10 -21 -22 -17 -26 4 -4 17 2 29 14 28 28 20 36
-12 12z"/>
<path d="M2620 5226 c0 -8 4 -17 9 -20 5 -4 7 3 4 14 -6 23 -13 26 -13 6z"/>
<path d="M3414 4284 c-1 -13 2 -24 7 -24 11 0 12 37 2 43 -5 3 -9 -6 -9 -19z"/>
<path d="M2780 4266 c0 -2 8 -10 18 -17 15 -13 16 -12 3 4 -13 16 -21 21 -21
13z"/>
<path d="M3414 4237 c-3 -10 -3 -33 0 -52 5 -25 11 -33 22 -28 12 4 14 14 9
42 -8 44 -22 61 -31 38z"/>
<path d="M3372 4120 c0 -14 2 -19 5 -12 2 6 2 18 0 25 -3 6 -5 1 -5 -13z"/>
<path d="M2697 3744 c-4 -4 -7 -12 -7 -17 0 -6 3 -7 7 -4 3 4 12 -1 19 -11 17
-22 18 -2 1 22 -7 9 -16 14 -20 10z"/>
<path d="M2663 3618 c3 -9 1 -19 -6 -22 -9 -3 -9 -5 0 -5 18 -1 23 13 11 29
-8 12 -9 12 -5 -2z"/>
<path d="M2836 3515 c-3 -8 -1 -15 3 -15 5 0 11 7 15 15 3 8 1 15 -3 15 -5 0
-11 -7 -15 -15z"/>
<path d="M2832 3470 c-7 -11 -9 -20 -4 -20 10 0 32 22 32 32 0 15 -15 8 -28
-12z"/>
<path d="M2661 3464 c0 -11 3 -14 6 -6 3 7 2 16 -1 19 -3 4 -6 -2 -5 -13z"/>
<path d="M3120 4510 c21 -7 22 -8 5 -9 -11 -1 -32 -12 -48 -25 l-27 -24 25 -6
c20 -5 33 0 55 21 32 30 26 54 -14 52 -19 -1 -18 -2 4 -9z"/>
<path d="M2928 4453 c7 -3 16 -2 19 1 4 3 -2 6 -13 5 -11 0 -14 -3 -6 -6z"/>
<path d="M2903 4403 c9 -2 23 -2 30 0 6 3 -1 5 -18 5 -16 0 -22 -2 -12 -5z"/>
<path d="M2156 4241 c-17 -19 -22 -87 -7 -109 5 -9 10 2 13 33 9 73 22 78 71
25 23 -25 48 -55 55 -65 11 -17 11 -16 1 5 -16 34 -76 108 -98 120 -14 7 -23
5 -35 -9z"/>
<path d="M2180 4178 c0 -7 7 -22 15 -32 16 -21 18 -15 9 22 -7 23 -24 31 -24
10z"/>
<path d="M2326 4059 c-18 -26 -29 -55 -30 -77 -2 -55 23 -51 63 8 29 43 33 55
25 77 -13 39 -26 37 -58 -8z"/>
<path d="M2211 4064 c0 -11 3 -14 6 -6 3 7 2 16 -1 19 -3 4 -6 -2 -5 -13z"/>
<path d="M2201 3994 c0 -11 3 -14 6 -6 3 7 2 16 -1 19 -3 4 -6 -2 -5 -13z"/>
<path d="M2365 3923 c17 -33 51 -73 60 -73 3 0 -6 23 -21 50 -15 28 -33 50
-41 50 -11 0 -11 -5 2 -27z"/>
<path d="M2260 3826 c0 -2 7 -9 15 -16 9 -7 15 -8 15 -2 0 5 -7 12 -15 16 -8
3 -15 4 -15 2z"/>
<path d="M3350 3494 c0 -8 5 -12 10 -9 6 3 10 10 10 16 0 5 -4 9 -10 9 -5 0
-10 -7 -10 -16z"/>
<path d="M3187 3253 c-4 -3 -7 -11 -7 -17 0 -6 5 -5 12 2 6 6 9 14 7 17 -3 3
-9 2 -12 -2z"/>
<path d="M3210 3235 c-7 -9 -8 -15 -2 -15 5 0 12 7 16 15 3 8 4 15 2 15 -2 0
-9 -7 -16 -15z"/>
<path d="M2300 1270 c0 -5 5 -10 11 -10 5 0 7 5 4 10 -3 6 -8 10 -11 10 -2 0
-4 -4 -4 -10z"/>
<path d="M2243 1230 c-18 -11 -33 -27 -33 -37 0 -14 4 -13 25 7 14 13 27 21
30 18 3 -2 -4 -13 -15 -23 -11 -10 -20 -23 -20 -28 0 -6 14 2 30 18 17 16 28
35 26 42 -8 19 9 16 29 -7 10 -11 22 -17 27 -13 6 3 14 0 18 -7 5 -8 10 -8 14
-2 7 12 -57 52 -82 52 -9 0 -32 -9 -49 -20z"/>
<path d="M2393 1193 c-23 -9 -13 -43 23 -81 32 -33 35 -35 29 -12 -4 14 -7 33
-8 43 -1 9 -9 19 -19 23 -10 3 -15 11 -11 20 5 15 5 15 -14 7z"/>
<path d="M2609 1107 c-14 -41 2 -72 20 -38 6 11 11 22 11 24 0 5 -29 18 -31
14z"/>
<path d="M2782 1080 c0 -14 2 -19 5 -12 2 6 2 18 0 25 -3 6 -5 1 -5 -13z"/>
<path d="M3296 1077 c3 -10 9 -15 12 -12 3 3 0 11 -7 18 -10 9 -11 8 -5 -6z"/>
<path d="M3391 1086 c-1 -26 2 -37 9 -30 6 6 6 21 1 39 -9 30 -9 30 -10 -9z"/>
<path d="M3682 1093 c5 -25 28 -28 28 -4 0 12 -6 21 -16 21 -9 0 -14 -7 -12
-17z"/>
<path d="M3091 1093 c0 -4 4 -17 9 -28 8 -19 9 -19 9 2 1 12 -3 25 -9 28 -5 3
-10 3 -9 -2z"/>
<path d="M4013 1085 c7 -13 14 -20 15 -14 5 14 -6 39 -17 39 -5 0 -4 -11 2
-25z"/>
<path d="M4394 1097 c-4 -11 -1 -24 8 -34 13 -13 16 -13 21 0 3 8 0 23 -8 34
-13 17 -14 17 -21 0z"/>
<path d="M3471 484 c0 -11 3 -14 6 -6 3 7 2 16 -1 19 -3 4 -6 -2 -5 -13z"/>
<path d="M3534 365 c-15 -36 -29 -44 -37 -22 -4 9 -6 9 -6 0 -1 -19 20 -27 33
-12 15 17 38 69 30 69 -3 0 -12 -16 -20 -35z"/>
<path d="M3920 306 c0 -8 4 -17 9 -20 5 -4 7 3 4 14 -6 23 -13 26 -13 6z"/>
<path d="M3226 403 c-6 -14 -5 -15 5 -6 7 7 10 15 7 18 -3 3 -9 -2 -12 -12z"/>
<path d="M3082 350 c0 -19 2 -27 5 -17 2 9 2 25 0 35 -3 9 -5 1 -5 -18z"/>
<path d="M4054 852 c3 -5 14 -94 26 -199 23 -213 33 -253 61 -253 24 0 25 42
4 225 -8 72 -15 154 -15 183 l0 52 -41 0 c-22 0 -38 -4 -35 -8z"/>
<path d="M2838 153 c7 -3 16 -2 19 1 4 3 -2 6 -13 5 -11 0 -14 -3 -6 -6z"/>
<path d="M4700 836 c0 -3 4 -16 9 -30 8 -18 15 -23 30 -19 23 6 27 23 9 41
-11 11 -48 17 -48 8z"/>
<path d="M2815 708 c-10 -44 -23 -123 -21 -126 2 -1 11 0 20 4 13 5 16 20 16
75 0 70 -5 87 -15 47z"/>
<path d="M2326 512 c-9 -247 -8 -245 -21 -254 -7 -5 -6 -11 1 -15 13 -10 6
-143 -8 -143 -6 0 -8 9 -5 20 3 11 1 18 -4 14 -5 -3 -9 -11 -9 -19 0 -7 -3
-15 -7 -17 -11 -4 -54 -98 -45 -98 4 0 17 23 30 51 27 58 42 56 42 -7 0 -42 1
-44 30 -44 l30 0 1 83 c0 45 2 107 4 137 16 210 3 478 -24 494 -4 3 -11 -88
-15 -202z"/>
<path d="M2496 658 c-3 -24 -13 -126 -21 -228 -9 -102 -21 -240 -28 -308 l-13
-122 38 0 38 0 0 83 c0 45 3 202 7 350 4 191 3 267 -5 267 -6 0 -13 -19 -16
-42z"/>
<path d="M4482 335 c0 -16 2 -22 5 -12 2 9 2 23 0 30 -3 6 -5 -1 -5 -18z"/>
<path d="M2868 283 c7 -3 16 -2 19 1 4 3 -2 6 -13 5 -11 0 -14 -3 -6 -6z"/>
<path d="M4521 264 c0 -11 3 -14 6 -6 3 7 2 16 -1 19 -3 4 -6 -2 -5 -13z"/>
<path d="M4453 209 c-2 -23 3 -25 10 -4 4 8 3 16 -1 19 -4 3 -9 -4 -9 -15z"/>
<path d="M4471 183 c-6 -21 -11 -45 -10 -53 0 -8 7 7 14 35 8 27 12 51 10 53
-2 2 -8 -13 -14 -35z"/>
<path d="M2176 193 c-6 -14 -5 -15 5 -6 7 7 10 15 7 18 -3 3 -9 -2 -12 -12z"/>
<path d="M2211 187 c-13 -21 -12 -21 5 -5 10 10 16 20 13 22 -3 3 -11 -5 -18
-17z"/>
<path d="M2735 180 c3 -5 8 -10 11 -10 2 0 4 5 4 10 0 6 -5 10 -11 10 -5 0 -7
-4 -4 -10z"/>
<path d="M4680 186 c0 -2 8 -10 18 -17 15 -13 16 -12 3 4 -13 16 -21 21 -21
13z"/>
<path d="M2200 148 c0 -3 -7 -22 -15 -42 -8 -20 -13 -36 -10 -36 8 0 36 73 30
78 -3 3 -5 3 -5 0z"/>
<path d="M2229 74 c-17 -36 -28 -68 -26 -70 2 -2 17 28 34 66 17 39 29 70 27
70 -3 0 -19 -30 -35 -66z"/>
<path d="M4673 85 c0 -33 2 -45 4 -27 2 18 2 45 0 60 -2 15 -4 0 -4 -33z"/>
<path d="M3650 111 c0 -11 -21 -40 -46 -65 l-46 -46 102 0 102 0 -31 35 c-17
19 -38 49 -46 65 -18 34 -35 39 -35 11z"/>
<path d="M2603 75 c0 -27 2 -38 4 -22 2 15 2 37 0 50 -2 12 -4 0 -4 -28z"/>
<path d="M4442 95 c0 -16 2 -22 5 -12 2 9 2 23 0 30 -3 6 -5 -1 -5 -18z"/>
<path d="M2419 105 c-1 -3 -2 -10 -3 -17 0 -6 -7 -13 -15 -16 -8 -3 -11 0 -7
6 3 6 2 13 -4 17 -12 8 -13 -15 -1 -34 6 -9 11 -10 15 -2 4 6 12 9 17 6 5 -4
8 5 7 19 -2 24 -6 33 -9 21z"/>
<path d="M2713 65 c0 -27 2 -38 4 -22 2 15 2 37 0 50 -2 12 -4 0 -4 -28z"/>
<path d="M2737 80 c3 -11 7 -20 9 -20 2 0 4 9 4 20 0 11 -4 20 -9 20 -5 0 -7
-9 -4 -20z"/>
<path d="M4491 84 c0 -11 3 -14 6 -6 3 7 2 16 -1 19 -3 4 -6 -2 -5 -13z"/>
<path d="M3559 85 c-4 -3 -17 -8 -29 -10 -12 -2 -25 -7 -28 -10 -3 -2 -12 1
-20 8 -10 7 -13 8 -9 1 4 -7 -5 -17 -23 -24 -36 -15 -54 -5 -19 10 19 8 8 9
-45 5 -51 -3 -75 -10 -91 -25 -27 -26 -35 -25 -32 1 1 12 -4 24 -10 26 -9 3
-13 -7 -13 -31 l0 -36 138 1 137 0 28 35 c16 18 27 39 25 44 -2 6 -6 9 -9 5z
m-164 -35 c3 -6 -1 -13 -10 -16 -19 -8 -30 0 -20 15 8 14 22 14 30 1z"/>
<path d="M2270 48 c-7 -18 -16 -37 -18 -43 -3 -6 5 1 17 14 11 13 21 32 21 43
0 25 -4 23 -20 -14z"/>
<path d="M4753 40 c1 -22 6 -40 10 -40 4 0 7 18 5 40 -3 52 -16 52 -15 0z"/>
<path d="M3782 52 c2 -9 17 -20 33 -25 17 -6 33 -14 36 -19 3 -5 44 -8 90 -6
l84 3 -87 28 c-105 34 -160 40 -156 19z"/>
<path d="M4733 35 c0 -22 2 -30 4 -17 2 12 2 30 0 40 -3 9 -5 -1 -4 -23z"/>
<path d="M2371 44 c0 -11 3 -14 6 -6 3 7 2 16 -1 19 -3 4 -6 -2 -5 -13z"/>
<path d="M4706 24 c-8 -20 -8 -24 2 -24 4 0 8 9 9 20 2 24 -3 26 -11 4z"/>
<path d="M2411 14 c0 -11 3 -14 6 -6 3 7 2 16 -1 19 -3 4 -6 -2 -5 -13z"/>
<path d="M4052 18 c3 -7 15 -14 29 -16 24 -4 24 -3 4 12 -24 19 -38 20 -33 4z"/>
</g>
</svg>
